<?xml version="1.0" encoding="UTF-8"?>
<svg width="25px" height="20px" viewBox="0 0 25 20" version="1.1" xmlns="http://www.w3.org/2000/svg" xmlns:xlink="http://www.w3.org/1999/xlink">
    <!-- Generator: Sketch 50.2 (55047) - http://www.bohemiancoding.com/sketch -->
    <title>np_point_2079004_000000</title>
    <desc>Created with Sketch.</desc>
    <defs></defs>
    <g id="Page-1" stroke="none" stroke-width="1" fill="none" fill-rule="evenodd">
        <g id="np_point_2079004_000000" fill="#EE82EE" fill-rule="nonzero">
            <path d="M4.53072917,8.1765625 L0.884895833,8.1765625 C0.4678125,8.1765625 0.130104167,8.5153125 0.130104167,8.93135417 L0.130104167,16.7438542 C0.130104167,17.1609375 0.468854167,17.4986458 0.884895833,17.4986458 L4.53072917,17.4986458 C4.9478125,17.4986458 5.28552083,17.1598958 5.28552083,16.7438542 L5.28552083,8.93135417 C5.26008958,8.51528646 4.94778646,8.1765625 4.53072917,8.1765625 Z M2.7078125,15.8333333 C2.2653125,15.8333333 1.90010417,15.4691667 1.90010417,15.025625 C1.90010417,14.583125 2.26427083,14.2179167 2.7078125,14.2179167 C3.1503125,14.2179167 3.51552083,14.5820833 3.51552083,15.025625 C3.51552083,15.468125 3.15135417,15.8333333 2.7078125,15.8333333 Z" id="Shape"></path>
            <path d="M23.4109375,7.26510417 L17.6299479,7.26510417 L13.9841146,7.26510417 C13.6972396,7.26510417 13.5151563,7.03113542 13.5670313,6.77072917 C13.8793229,4.73927083 14.2964063,4.03635417 14.5049479,1.92645833 C14.7134844,-0.105 11.8223958,-0.469166667 11.4065104,1.43208333 C10.6252604,4.94770833 7.70885417,7.29145833 6.77083333,7.99432292 C6.56229688,8.12453125 6.45854167,8.35848958 6.45854167,8.59348958 L6.45854167,17.0052083 C6.45854167,17.3175 6.64063021,17.5779167 6.9275,17.708125 C7.96916667,18.150625 9.14104167,19.1139583 12.6048438,19.1139583 L18.0217708,19.1139583 C18.8294792,19.1139583 19.5059375,18.4364583 19.5059375,17.6297917 C19.5049203,16.823099 18.7765625,16.145625 17.9688802,16.145625 L18.1509688,16.145625 C18.9057604,16.145625 19.5832604,15.5983333 19.6615938,14.87 C19.7918021,13.9585417 19.0624271,13.20375 18.2028437,13.20375 L18.3849323,13.20375 C19.139724,13.20375 19.817224,12.6564583 19.8955573,11.928125 C20.0257656,11.0166667 19.2963906,10.2354167 18.4368073,10.2354167 C18.4368073,10.2354167 19.2963906,10.2089687 19.6870156,10.2089687 L23.4112344,10.2089687 C24.2189427,10.2089687 24.8699844,9.55792708 24.8699844,8.75021875 C24.8699844,7.91607813 24.2189427,7.26503646 23.4112344,7.26503646 L23.4109375,7.26510417 Z" id="Shape"></path>
        </g>
    </g>
</svg>