<?xml version="1.0" encoding="UTF-8"?>
<svg width="20px" height="12px" viewBox="0 0 20 12" version="1.1" xmlns="http://www.w3.org/2000/svg" xmlns:xlink="http://www.w3.org/1999/xlink">
    <!-- Generator: Sketch 50.2 (55047) - http://www.bohemiancoding.com/sketch -->
    <title>np_pointer_2104939_000000</title>
    <desc>Created with Sketch.</desc>
    <defs></defs>
    <g id="Page-1" stroke="none" stroke-width="1" fill="none" fill-rule="evenodd">
        <g id="np_pointer_2104939_000000" fill="#EE82EE" fill-rule="nonzero">
            <path d="M17.4193407,2.04065934 L13.6898901,2.23554286 C13.5808593,1.61226813 13.2915385,1.0876967 12.8571209,0.736575824 C11.814022,-0.105621978 9.99140659,-0.133094505 8.72942857,0.273828571 C7.72925275,0.597498901 6.8218022,1.00958681 5.87492308,1.57018022 C5.06534066,2.05009231 4.47982418,2.68881758 4.20252747,3.02708132 C4.00678681,3.26574066 3.87971429,3.39196044 3.70116484,3.50785055 C3.41013187,3.13525714 2.93107692,2.92492747 2.34298901,2.93521319 C1.75575824,2.93950571 1.22520879,3.26402637 0.949626374,3.53960879 C0.867208791,3.62202637 0.799386813,3.71732088 0.748734066,3.82292747 C0.649147253,4.03068791 0.524668132,4.37066374 0.383854945,4.76042198 C0.322041758,4.93126593 0.410468132,5.12099341 0.582171429,5.18281758 C0.619087912,5.19655385 0.656861538,5.20256352 0.693778022,5.20256352 C0.828564835,5.20256352 0.955624176,5.11928659 1.00371209,4.98449978 C1.13334725,4.62564264 1.25610769,4.28909319 1.34283297,4.10966462 C1.36172022,4.07017231 1.38575824,4.03669099 1.41580659,4.0057833 C1.5566022,3.86498769 1.93264176,3.5979811 2.34815824,3.59455253 C2.6434989,3.59026 3.02552088,3.65980088 3.22127912,3.96714593 C2.90191648,4.90206901 2.59283956,5.98723385 2.62116923,7.05945363 C2.63232989,7.48870637 2.7095956,7.91024484 2.86242198,8.38758549 C2.90706374,8.52752396 3.0367011,8.61595912 3.17578462,8.61595912 C3.20926593,8.61595912 3.24360659,8.61080813 3.27709011,8.60050571 C3.45050989,8.54470132 3.54581538,8.35925297 3.4900022,8.18584637 C3.35607253,7.77032989 3.28996703,7.40716505 3.27966593,7.04230791 C3.25390989,6.07562659 3.54236923,5.06514308 3.8419956,4.1869233 C4.20170989,3.99547495 4.40603956,3.81690132 4.71166593,3.44430791 C4.96149011,3.13953868 5.48775385,2.56432989 6.21063297,2.13679143 C7.11465495,1.60107714 7.97918242,1.20786835 8.93217143,0.900527692 C10.0130505,0.551121099 11.6218418,0.586307912 12.4436,1.24907714 C12.7930066,1.53153868 12.9552703,1.92043978 13.0282593,2.26984637 L9.79946813,2.43897385 C9.61746154,2.44841758 9.47753407,2.60380901 9.48696264,2.78495187 C9.49640637,2.96695626 9.6517978,3.10517165 9.83294066,3.09745736 L13.4241495,2.90944198 L13.4258666,2.90944198 L13.4267251,2.90944198 L17.4403514,2.69910571 C17.4446442,2.70425692 19.0655163,2.71284198 19.1170327,3.47347934 C19.1376371,3.77310571 19.0646635,4.00919363 18.8946811,4.19550132 C18.4894503,4.63849033 17.6747251,4.65996286 17.6678679,4.65996286 C17.6592826,4.65996286 17.6498391,4.66082132 17.6412547,4.66168 L12.7726833,5.13214154 C12.7400591,5.13557582 12.7100108,5.14416088 12.6808218,5.1561811 C12.6739536,5.15875648 12.6679442,5.16133209 12.661076,5.16476615 C12.6550664,5.16734176 12.6490567,5.16991736 12.6430473,5.17335121 C12.5185615,5.2351644 12.4404363,5.37081055 12.4627593,5.51590066 C12.4893725,5.69618857 12.6559264,5.81981275 12.837067,5.79405451 C13.3032429,5.72451385 13.6269132,5.90051165 13.8157703,6.06104352 C14.1025176,6.30315341 14.2785176,6.67660396 14.287089,7.0603622 C14.2939571,7.36427429 14.1789154,7.65187868 13.9642758,7.87080176 C13.6723857,8.16957099 13.2182319,8.32752703 12.6507374,8.32752703 C12.6284165,8.32752703 12.6060956,8.33010264 12.5846319,8.33439516 C12.5760468,8.33611231 12.5683202,8.33954615 12.5597352,8.34212176 C12.547716,8.34555582 12.5348385,8.34813143 12.5228187,8.35328242 C12.5150921,8.3567167 12.508224,8.36100923 12.5004978,8.36530176 C12.4893371,8.37131143 12.4773176,8.37646242 12.4670165,8.38333055 C12.4601484,8.38762308 12.4541387,8.39363275 12.4472705,8.39878396 C12.4369686,8.40651055 12.4266662,8.41423714 12.4172222,8.42282352 C12.412071,8.42797451 12.4077785,8.43484264 12.4026275,8.44085231 C12.3940422,8.45115451 12.3845985,8.46059824 12.3768714,8.4717578 C12.3725789,8.47862593 12.3691448,8.48635253 12.3648521,8.49322066 C12.3588426,8.50438132 12.3511158,8.51554154 12.3459648,8.52756132 C12.3425308,8.53528813 12.3408138,8.54473165 12.3382382,8.55245802 C12.3339457,8.56447736 12.329653,8.57649758 12.3270776,8.58851516 C12.3253604,8.5979589 12.3253604,8.6082611 12.3236433,8.61856352 C12.3219264,8.63058264 12.3202095,8.64174374 12.3202095,8.65376352 L12.3202095,8.65462198 L12.3202095,8.65548044 C12.3202095,8.66578286 12.3227848,8.67608484 12.3236433,8.68638813 C12.324502,8.69840725 12.3253604,8.71042549 12.3270776,8.72158813 C12.3287945,8.73103165 12.333087,8.73961692 12.3356626,8.74906066 C12.3390967,8.76107978 12.3416723,8.77224088 12.3468233,8.78340132 C12.3502574,8.79198637 12.3554086,8.79885451 12.3597011,8.80658154 C12.3657108,8.81774242 12.3708618,8.82890242 12.3768714,8.83920571 C12.381164,8.84607385 12.3871736,8.85122505 12.3923246,8.85809319 C12.4000514,8.86839516 12.407778,8.87955604 12.4172213,8.88814154 C12.4223723,8.89329275 12.428382,8.89758527 12.4343916,8.90273626 C12.4446938,8.91132154 12.454996,8.92162374 12.4661565,8.92849231 C12.4721662,8.93278484 12.4798927,8.93536044 12.4859024,8.93965297 C12.4979215,8.9465211 12.5090826,8.95338923 12.5219596,8.9593989 C12.5296862,8.96283297 12.5391299,8.96454989 12.5477156,8.96712549 C12.5597347,8.97141802 12.5708958,8.97571077 12.5837727,8.97828615 C12.5940749,8.9800033 12.6043771,8.98086176 12.6146782,8.98172044 C12.6266976,8.98343736 12.6378585,8.98515429 12.6490189,8.98515429 C12.9718321,8.98772989 13.1795903,9.15084879 13.2971947,9.28649495 C13.5101068,9.53460484 13.6071288,9.89346198 13.5556123,10.2471763 C13.4766277,10.7888905 12.8902716,11.2319015 12.3313705,11.1820993 C12.3210684,11.1803824 12.3090497,11.1743727 12.3004651,11.1803824 L7.81475077,11.1863921 C7.80358989,11.1863921 6.66604747,11.160636 6.06250901,10.7639965 C5.79121231,10.5854251 5.46670681,10.3373152 5.12415736,10.0445679 C4.8228167,9.78615033 4.44162989,9.64535912 4.04930022,9.63762286 C3.97804308,9.44960747 3.90421011,9.26502945 3.83209582,9.08645802 L3.79088703,8.98515253 C3.72220571,8.8168844 3.52989802,8.73532835 3.36163429,8.80400527 C3.19337055,8.8726822 3.11181011,9.06499429 3.18048703,9.23325802 L3.22169582,9.33542066 C3.30239692,9.53373714 3.38481451,9.73891516 3.46209143,9.94667341 C3.23545407,10.3115525 2.84310242,10.5339042 2.42672879,10.5278822 C1.9219156,10.5158629 1.6051244,10.1630031 1.50297055,10.0299481 C1.49524374,9.9981833 1.48322462,9.9672756 1.46519473,9.93808659 C1.21794198,9.54059209 0.64359033,8.45114154 0.661634286,6.91171297 C0.662492967,6.83444703 0.665068571,6.75975473 0.668502418,6.6850756 C0.677087692,6.50307121 0.537148571,6.34854813 0.35513978,6.33995473 C0.168840879,6.33051121 0.0186123077,6.47130857 0.0100189011,6.65331736 C0.00572637363,6.73573495 0.00315076923,6.81986901 0.00229208791,6.90485582 C-0.0174536264,8.55235033 0.577500879,9.74485582 0.871105275,10.2307899 C0.878831868,10.2719987 0.895142637,10.3132075 0.920041538,10.350124 C0.975845934,10.4334009 1.49096462,11.1657064 2.41041516,11.188036 C2.42415143,11.188036 2.43874703,11.1888945 2.4524833,11.1888945 C3.08606571,11.1888945 3.67586791,10.8480593 4.01841736,10.3003231 C4.26567011,10.3011815 4.50692286,10.3836 4.69578,10.5458615 C5.06408769,10.8609385 5.40232945,11.1202132 5.70109868,11.3159495 C6.46518659,11.8173121 7.74865912,11.8447846 7.80962615,11.8465209 L12.286769,11.8405112 C12.3331295,11.8448037 12.380347,11.8465209 12.4267075,11.8465209 C13.2886635,11.8465209 14.0853668,11.1888945 14.208136,10.3432681 C14.2862613,9.80412527 14.1325866,9.24865275 13.7977624,8.85803736 C13.777158,8.83485714 13.7556943,8.81339341 13.7342327,8.79107253 C14.0535954,8.66229451 14.281969,8.48973187 14.4373536,8.3308967 C14.7773316,7.9832044 14.9584745,7.52645714 14.9481668,7.04397363 C14.9370062,6.51770989 14.7086503,6.0043033 14.3360349,5.64373187 L17.6962547,5.32006154 C17.8353338,5.31576901 18.8140349,5.26168352 19.3815295,4.64441319 C19.6777273,4.32247912 19.8107822,3.91381978 19.7781668,3.43047912 C19.7000415,2.31184176 18.2577273,2.03195165 17.4199251,2.04054505 L17.4193407,2.04065934 Z" id="Shape"></path>
            <path d="M0.376021978,6.14351648 C0.396626374,6.14780901 0.417230769,6.14866747 0.436975824,6.14866747 C0.592367033,6.14866747 0.73058022,6.03791802 0.760646154,5.8799422 L0.781250549,5.77520374 C0.818167033,5.59663231 0.703125275,5.42234659 0.524547253,5.38630264 C0.345975824,5.34766967 0.17169011,5.46442791 0.135646154,5.64214879 L0.112465934,5.75804769 C0.0789846154,5.9383356 0.1966,6.11004769 0.376026374,6.14352022 L0.376021978,6.14351648 Z" id="Shape"></path>
            <path d="M5.87230769,9.73978022 C5.96588571,9.73978022 6.05946374,9.69943077 6.1247033,9.62216264 C6.24232088,9.48308352 6.22429011,9.27532747 6.08521099,9.1577011 C5.9736044,9.06326374 5.86371648,8.96539341 5.75296923,8.86495385 C5.61818242,8.74218681 5.40956264,8.75248791 5.28765055,8.88727473 C5.16488352,9.02206154 5.17518462,9.23068132 5.30997143,9.35259341 C5.42672967,9.45819121 5.54263077,9.56207033 5.66025714,9.66164835 C5.72207033,9.71401758 5.79761978,9.73977363 5.87230989,9.73977363 L5.87230769,9.73978022 Z" id="Shape"></path>
            <path d="M6.91098901,10.430989 C7.28358242,10.5700681 7.67248352,10.6516264 8.06740659,10.673956 C8.07341626,10.673956 8.0802844,10.6748145 8.08629407,10.6748145 C8.25971385,10.6748145 8.40479956,10.5391684 8.41510725,10.3640233 C8.42540967,10.182876 8.28632923,10.0266167 8.10431604,10.016331 C7.77636,9.99744352 7.45183253,9.9296211 7.1410633,9.81372 C7.02773802,9.77165187 6.91528308,9.72099912 6.80625011,9.6626211 C6.64570725,9.57762769 6.44567868,9.63858154 6.36068967,9.7991244 C6.27483912,9.95966725 6.33579297,10.1596958 6.49719297,10.2446848 C6.63112264,10.315942 6.7710611,10.3794716 6.91099516,10.4309837 L6.91098901,10.430989 Z" id="Shape"></path>
        </g>
    </g>
</svg>