<?xml version="1.0" encoding="UTF-8"?>
<svg width="90px" height="54px" viewBox="0 0 90 54" version="1.1" xmlns="http://www.w3.org/2000/svg" xmlns:xlink="http://www.w3.org/1999/xlink">
    <!-- Generator: Sketch 50.2 (55047) - http://www.bohemiancoding.com/sketch -->
    <title>np_pointer_2104939_000000</title>
    <desc>Created with Sketch.</desc>
    <defs></defs>
    <g id="Page-1" stroke="none" stroke-width="1" fill="none" fill-rule="evenodd">
        <g id="np_pointer_2104939_000000" fill="#EE82EE" fill-rule="nonzero">
            <path d="M79.258,9.285 L62.289,10.17172 C61.79291,7.33582 60.4765,4.94902 58.4999,3.35142 C53.7538,-0.48058 45.4609,-0.60558 39.7189,1.24592 C35.1681,2.71862 31.0392,4.59362 26.7309,7.14432 C23.0473,9.32792 20.3832,12.23412 19.1215,13.77322 C18.23088,14.85912 17.6527,15.43342 16.8403,15.96072 C15.5161,14.26542 13.3364,13.30842 10.6606,13.35522 C7.9887,13.374751 5.5747,14.85132 4.3208,16.10522 C3.9458,16.48022 3.63721,16.91381 3.40674,17.39432 C2.95362,18.33963 2.38724,19.88652 1.74654,21.65992 C1.46529,22.43726 1.86763,23.30052 2.64888,23.58182 C2.81685,23.64432 2.98872,23.671664 3.15669,23.671664 C3.76997,23.671664 4.34809,23.292754 4.56689,22.679474 C5.15673,21.046674 5.71529,19.515374 6.10989,18.698974 C6.195827,18.519284 6.3052,18.366944 6.44192,18.226314 C7.08254,17.585694 8.79352,16.370814 10.68412,16.355214 C12.02792,16.335683 13.76612,16.652094 14.65682,18.050514 C13.20372,22.304414 11.79742,27.241914 11.92632,32.120514 C11.977101,34.073614 12.32866,35.991614 13.02402,38.163514 C13.22714,38.800234 13.81699,39.202614 14.44982,39.202614 C14.60216,39.202614 14.75841,39.179177 14.91076,39.132301 C15.69982,38.878391 16.13346,38.034601 15.87951,37.245601 C15.27013,35.355001 14.96935,33.702601 14.92248,32.042501 C14.80529,27.644101 16.11778,23.046401 17.48108,19.050501 C19.11778,18.179411 20.04748,17.366901 21.43808,15.671601 C22.57478,14.284901 24.96928,11.667701 28.25838,9.722401 C32.37168,7.284901 36.30528,5.495801 40.64138,4.097401 C45.55938,2.507601 52.87938,2.667701 56.61838,5.683301 C58.20818,6.968501 58.94648,8.738001 59.27858,10.327801 L44.58758,11.097331 C43.75945,11.1403 43.12278,11.847331 43.16568,12.671531 C43.208649,13.499651 43.91568,14.128531 44.73988,14.093431 L61.07988,13.237961 L61.087693,13.237961 L61.091599,13.237961 L79.353599,12.280931 C79.373131,12.304369 86.748099,12.343431 86.982499,15.804331 C87.076249,17.167631 86.744219,18.241831 85.970799,19.089531 C84.126999,21.105131 80.419999,21.202831 80.388799,21.202831 C80.349736,21.202831 80.306768,21.206737 80.267709,21.210644 L58.115709,23.351244 C57.967269,23.36687 57.830549,23.405932 57.697739,23.460624 C57.666489,23.472342 57.639146,23.484061 57.607896,23.499686 C57.580552,23.511405 57.553208,23.523124 57.525865,23.538748 C56.959455,23.819998 56.603985,24.437188 56.705555,25.097348 C56.826645,25.917658 57.584465,26.480148 58.408655,26.362948 C60.529755,26.046538 62.002455,26.847328 62.861755,27.577748 C64.166455,28.679348 64.967255,30.378548 65.006255,32.124648 C65.037505,33.507448 64.514065,34.816048 63.537455,35.812148 C62.209355,37.171548 60.142955,37.890248 57.560855,37.890248 C57.459295,37.890248 57.357735,37.901967 57.260075,37.921498 C57.221013,37.929311 57.185857,37.944935 57.146795,37.956654 C57.092108,37.972279 57.033515,37.983998 56.978825,38.007435 C56.943669,38.023061 56.912419,38.042592 56.877265,38.062123 C56.826484,38.089467 56.771795,38.112904 56.724925,38.144154 C56.693675,38.163685 56.666331,38.191029 56.635081,38.214467 C56.588207,38.249623 56.541331,38.284779 56.498361,38.323847 C56.474923,38.347284 56.455392,38.378534 56.431955,38.405878 C56.392892,38.452753 56.349923,38.495722 56.314765,38.546498 C56.295234,38.577748 56.279609,38.612904 56.260077,38.644154 C56.232734,38.694935 56.197577,38.745714 56.17414,38.800404 C56.158515,38.835561 56.150703,38.878529 56.138984,38.913684 C56.119453,38.968372 56.099921,39.023064 56.088203,39.077744 C56.08039,39.120713 56.08039,39.167588 56.072577,39.214464 C56.064765,39.269151 56.056953,39.319934 56.056953,39.374624 L56.056953,39.37853 L56.056953,39.382436 C56.056953,39.429312 56.068671,39.476186 56.072577,39.523066 C56.076484,39.577753 56.08039,39.632436 56.088203,39.683226 C56.096015,39.726194 56.115546,39.765257 56.127265,39.808226 C56.14289,39.862913 56.154609,39.913696 56.178046,39.964476 C56.193671,40.003538 56.217109,40.034788 56.23664,40.069946 C56.263984,40.120728 56.287421,40.171506 56.314765,40.218386 C56.334296,40.249636 56.36164,40.273074 56.385077,40.304324 C56.420234,40.351198 56.45539,40.40198 56.498357,40.441044 C56.521794,40.464482 56.549138,40.484013 56.576482,40.50745 C56.623357,40.546513 56.670232,40.593388 56.721012,40.62464 C56.748356,40.644171 56.783512,40.65589 56.810856,40.675421 C56.865543,40.706671 56.916326,40.737921 56.974916,40.765265 C57.010072,40.78089 57.053041,40.788702 57.092106,40.800421 C57.146793,40.819952 57.197576,40.839484 57.256166,40.851202 C57.303041,40.859015 57.349916,40.862921 57.396786,40.866828 C57.451474,40.87464 57.502256,40.882452 57.553036,40.882452 C59.021836,40.894171 59.967136,41.636362 60.502236,42.253552 C61.470986,43.382452 61.912436,45.015252 61.678036,46.624652 C61.318656,49.089452 58.650736,51.105152 56.107736,50.878552 C56.060861,50.87074 56.006176,50.843396 55.967116,50.87074 L35.557116,50.898084 C35.506334,50.898084 30.330516,50.780894 27.584416,48.976184 C26.350016,48.163684 24.873516,47.034784 23.314916,45.702784 C21.943816,44.526984 20.209416,43.886384 18.424316,43.851184 C18.100096,42.995714 17.764156,42.155884 17.436036,41.343384 L17.248536,40.882444 C16.936036,40.116824 16.061036,39.745744 15.295436,40.058224 C14.529836,40.370704 14.158736,41.245724 14.471216,42.011324 L14.658716,42.476164 C15.025906,43.378504 15.400906,44.312064 15.752516,45.257364 C14.721316,46.917564 12.936116,47.929264 11.041616,47.901864 C8.744716,47.847176 7.303316,46.241664 6.838516,45.636264 C6.803359,45.491734 6.748672,45.351104 6.666636,45.218294 C5.541636,43.409694 2.928336,38.452694 3.010436,31.448294 C3.014343,31.096734 3.026062,30.756884 3.041686,30.417094 C3.080749,29.588974 2.444026,28.885894 1.615886,28.846794 C0.768226,28.803826 0.084686,29.444454 0.045586,30.272594 C0.026055,30.647594 0.014336,31.030404 0.010429,31.417094 C-0.079414,38.913194 2.627629,44.339094 3.963529,46.550094 C3.998685,46.737594 4.072899,46.925094 4.186189,47.093064 C4.440099,47.471974 6.783889,50.803964 10.967389,50.905564 C11.029889,50.905564 11.096299,50.90947 11.158799,50.90947 C14.041599,50.90947 16.725199,49.35867 18.283799,46.86647 C19.408799,46.870376 20.506499,47.24538 21.365799,47.98367 C23.041599,49.41727 24.580599,50.59697 25.939999,51.48757 C29.416599,53.76877 35.256399,53.89377 35.533799,53.90167 L55.904799,53.874326 C56.115739,53.893857 56.330579,53.90167 56.541519,53.90167 C60.463419,53.90167 64.088419,50.90947 64.647019,47.06187 C65.002489,44.60877 64.303269,42.08137 62.779819,40.30407 C62.686069,40.1986 62.588409,40.10094 62.490759,39.99938 C63.943859,39.41344 64.982959,38.62828 65.689959,37.90558 C67.236859,36.32358 68.061059,34.24538 68.014159,32.05008 C67.963378,29.65558 66.924359,27.31958 65.228959,25.67898 L80.517959,24.20628 C81.150769,24.186749 85.603859,23.94066 88.185959,21.13208 C89.533659,19.66728 90.139059,17.80788 89.990659,15.60868 C89.635189,10.51888 83.072659,9.24538 79.260659,9.28448 L79.258,9.285 Z" id="Shape"></path>
            <path d="M1.7109,27.953 C1.80465,27.972531 1.8984,27.976437 1.98824,27.976437 C2.69527,27.976437 3.32414,27.472527 3.46094,26.753737 L3.55469,26.277177 C3.72266,25.464677 3.19922,24.671677 2.38669,24.507677 C1.57419,24.331897 0.78119,24.863147 0.61719,25.671777 L0.51172,26.199117 C0.35938,27.019427 0.89453,27.800717 1.71092,27.953017 L1.7109,27.953 Z" id="Shape"></path>
            <path d="M26.719,44.316 C27.14478,44.316 27.57056,44.13241 27.8674,43.78084 C28.40256,43.14803 28.32052,42.20274 27.68771,41.66754 C27.1799,41.23785 26.67991,40.79254 26.17601,40.33554 C25.56273,39.77695 24.61351,39.82382 24.05881,40.4371 C23.50022,41.05038 23.54709,41.9996 24.16037,42.5543 C24.69162,43.03477 25.21897,43.50742 25.75417,43.9605 C26.03542,44.19878 26.37917,44.31597 26.71901,44.31597 L26.719,44.316 Z" id="Shape"></path>
            <path d="M31.445,47.461 C33.1403,48.09381 34.9098,48.4649 36.7067,48.5665 C36.734044,48.5665 36.765294,48.570406 36.792638,48.570406 C37.581698,48.570406 38.241838,47.953216 38.288738,47.156306 C38.335614,46.332086 37.702798,45.621106 36.874638,45.574306 C35.382438,45.488368 33.905838,45.179776 32.491838,44.652426 C31.976208,44.461016 31.464538,44.230546 30.968438,43.964926 C30.237968,43.578206 29.327838,43.855546 28.941138,44.586016 C28.550518,45.316486 28.827858,46.226616 29.562228,46.613316 C30.171608,46.937536 30.808328,47.226596 31.445028,47.460976 L31.445,47.461 Z" id="Shape"></path>
        </g>
    </g>
</svg>